<?xml version="1.0" encoding="UTF-8" standalone="no"?>
<svg
   xmlns:dc="http://purl.org/dc/elements/1.1/"
   xmlns:cc="http://creativecommons.org/ns#"
   xmlns:rdf="http://www.w3.org/1999/02/22-rdf-syntax-ns#"
   xmlns:svg="http://www.w3.org/2000/svg"
   xmlns="http://www.w3.org/2000/svg"
   xmlns:sodipodi="http://sodipodi.sourceforge.net/DTD/sodipodi-0.dtd"
   xmlns:inkscape="http://www.inkscape.org/namespaces/inkscape"
   sodipodi:docname="logo.svg"
   inkscape:version="1.0 (4035a4f, 2020-05-01)"
   id="svg8"
   version="1.1"
   viewBox="0 0 124.29569 35.051998"
   height="35.051998mm"
   width="124.29569mm">
  <defs
     id="defs2" />
  <sodipodi:namedview
     fit-margin-bottom="0"
     fit-margin-right="0"
     fit-margin-left="0"
     fit-margin-top="0"
     inkscape:window-maximized="1"
     inkscape:window-y="23"
     inkscape:window-x="0"
     inkscape:window-height="855"
     inkscape:window-width="1440"
     showgrid="false"
     inkscape:document-rotation="0"
     inkscape:current-layer="layer1"
     inkscape:document-units="mm"
     inkscape:cy="405.72159"
     inkscape:cx="310.08469"
     inkscape:zoom="0.35"
     inkscape:pageshadow="2"
     inkscape:pageopacity="0.0"
     borderopacity="1.0"
     bordercolor="#666666"
     pagecolor="#ffffff"
     id="base" />
  <metadata
     id="metadata5">
    <rdf:RDF>
      <cc:Work
         rdf:about="">
        <dc:format>image/svg+xml</dc:format>
        <dc:type
           rdf:resource="http://purl.org/dc/dcmitype/StillImage" />
        <dc:title></dc:title>
      </cc:Work>
    </rdf:RDF>
  </metadata>
  <g
     transform="translate(-22.95676,-41.152831)"
     id="layer1"
     inkscape:groupmode="layer"
     inkscape:label="Layer 1">
    <path
       inkscape:connector-curvature="0"
       inkscape:connector-type="polyline"
       id="path10"
       d="m 40.065475,41.577381 v 0"
       style="fill:none;fill-rule:evenodd;stroke:#000000;stroke-width:0.264583px;stroke-linecap:butt;stroke-linejoin:miter;stroke-opacity:1" />
    <text
       id="text18"
       y="57.452389"
       x="9.827383"
       style="font-style:normal;font-variant:normal;font-weight:normal;font-stretch:normal;font-size:50.8px;line-height:1.25;font-family:'ITF Devanagari';-inkscape-font-specification:'ITF Devanagari, Normal';font-variant-ligatures:normal;font-variant-caps:normal;font-variant-numeric:normal;font-variant-east-asian:normal;stroke-width:0.264583"
       xml:space="preserve"><tspan
         id="tspan20"
         style="font-style:normal;font-variant:normal;font-weight:normal;font-stretch:normal;font-size:50.8px;font-family:'ITF Devanagari';-inkscape-font-specification:'ITF Devanagari, Normal';font-variant-ligatures:normal;font-variant-caps:normal;font-variant-numeric:normal;font-variant-east-asian:normal;stroke-width:0.264583"
         y="57.452389"
         x="9.827383"
         sodipodi:role="line" /></text>
    <g
       style="font-style:normal;font-variant:normal;font-weight:bold;font-stretch:normal;font-size:50.8px;line-height:1.25;font-family:Seravek;-inkscape-font-specification:'Seravek, Bold';font-variant-ligatures:normal;font-variant-caps:normal;font-variant-numeric:normal;font-variant-east-asian:normal;fill:#ed4133;fill-opacity:1;stroke-width:0.264583"
       id="text26"
       aria-label="NABS">
      <g
         style="opacity:1"
         id="g1633">
        <path
           id="path1635"
           d="m 44.95316,75.59523 -13.97,-20.1676 v 20.1676 h -8.0264 V 41.762431 h 8.0264 l 13.97,20.167599 V 41.762431 h 8.0264 V 75.59523 Z"
           style="color:#000000;font-style:normal;font-variant:normal;font-weight:bold;font-stretch:normal;font-size:50.79999999999999716px;line-height:1.25;font-family:Seravek;-inkscape-font-specification:'Seravek, Bold';font-variant-ligatures:normal;font-variant-position:normal;font-variant-caps:normal;font-variant-numeric:normal;font-variant-alternates:normal;font-variant-east-asian:normal;font-feature-settings:normal;font-variation-settings:normal;text-indent:0;text-align:start;text-decoration:none;text-decoration-line:none;text-decoration-style:solid;text-decoration-color:#000000;letter-spacing:normal;word-spacing:normal;text-transform:none;writing-mode:lr-tb;direction:ltr;text-orientation:mixed;dominant-baseline:auto;baseline-shift:baseline;text-anchor:start;white-space:normal;shape-padding:0;shape-margin:0;inline-size:0;clip-rule:nonzero;display:inline;overflow:visible;visibility:visible;isolation:auto;mix-blend-mode:normal;color-interpolation:sRGB;color-interpolation-filters:linearRGB;solid-color:#000000;solid-opacity:1;vector-effect:none;fill:#ed4133;fill-opacity:1;fill-rule:nonzero;stroke-width:0.264583;stroke-linecap:butt;stroke-linejoin:miter;stroke-miterlimit:4;stroke-dasharray:none;stroke-dashoffset:0;stroke-opacity:1.0;color-rendering:auto;image-rendering:auto;shape-rendering:auto;text-rendering:auto;enable-background:accumulate;stop-color:#000000;stop-opacity:1;stroke:none;" />
        <path
           id="path1637"
           d="M 22.824219 41.630859 L 22.824219 75.726562 L 31.115234 75.726562 L 31.115234 55.851562 L 44.884766 75.726562 L 44.953125 75.726562 L 53.111328 75.726562 L 53.111328 41.630859 L 44.820312 41.630859 L 44.820312 61.505859 L 31.052734 41.630859 L 22.824219 41.630859 z M 23.089844 41.894531 L 30.914062 41.894531 L 45.085938 62.353516 L 45.085938 41.894531 L 52.847656 41.894531 L 52.847656 75.462891 L 45.023438 75.462891 L 30.851562 55.003906 L 30.851562 75.462891 L 23.089844 75.462891 L 23.089844 41.894531 z "
           style="color:#000000;font-style:normal;font-variant:normal;font-weight:bold;font-stretch:normal;font-size:50.79999999999999716px;line-height:1.25;font-family:Seravek;-inkscape-font-specification:'Seravek, Bold';font-variant-ligatures:normal;font-variant-position:normal;font-variant-caps:normal;font-variant-numeric:normal;font-variant-alternates:normal;font-variant-east-asian:normal;font-feature-settings:normal;font-variation-settings:normal;text-indent:0;text-align:start;text-decoration:none;text-decoration-line:none;text-decoration-style:solid;text-decoration-color:#000000;letter-spacing:normal;word-spacing:normal;text-transform:none;writing-mode:lr-tb;direction:ltr;text-orientation:mixed;dominant-baseline:auto;baseline-shift:baseline;text-anchor:start;white-space:normal;shape-padding:0;shape-margin:0;inline-size:0;clip-rule:nonzero;display:inline;overflow:visible;visibility:visible;isolation:auto;mix-blend-mode:normal;color-interpolation:sRGB;color-interpolation-filters:linearRGB;solid-color:#000000;solid-opacity:1;vector-effect:none;fill-opacity:1;fill-rule:nonzero;stroke-width:0.264583;stroke-linecap:butt;stroke-linejoin:miter;stroke-miterlimit:4;stroke-dasharray:none;stroke-dashoffset:0;stroke-opacity:1.0;color-rendering:auto;image-rendering:auto;shape-rendering:auto;text-rendering:auto;enable-background:accumulate;stop-color:#000000;stop-opacity:1;stroke:none;" />
      </g>
      <g
         style="opacity:1"
         id="g1639">
        <path
           id="path1641"
           d="m 80.498077,69.04203 h -12.954 l -2.0828,6.5532 H 56.876078 L 69.474477,41.762431 h 9.144 l 12.5984,33.832799 h -8.5852 z m -10.8204,-6.604 h 8.6868 l -4.318,-14.274799 z"
           style="color:#000000;font-style:normal;font-variant:normal;font-weight:bold;font-stretch:normal;font-size:50.79999999999999716px;line-height:1.25;font-family:Seravek;-inkscape-font-specification:'Seravek, Bold';font-variant-ligatures:normal;font-variant-position:normal;font-variant-caps:normal;font-variant-numeric:normal;font-variant-alternates:normal;font-variant-east-asian:normal;font-feature-settings:normal;font-variation-settings:normal;text-indent:0;text-align:start;text-decoration:none;text-decoration-line:none;text-decoration-style:solid;text-decoration-color:#000000;letter-spacing:normal;word-spacing:normal;text-transform:none;writing-mode:lr-tb;direction:ltr;text-orientation:mixed;dominant-baseline:auto;baseline-shift:baseline;text-anchor:start;white-space:normal;shape-padding:0;shape-margin:0;inline-size:0;clip-rule:nonzero;display:inline;overflow:visible;visibility:visible;isolation:auto;mix-blend-mode:normal;color-interpolation:sRGB;color-interpolation-filters:linearRGB;solid-color:#000000;solid-opacity:1;vector-effect:none;fill:#ed4133;fill-opacity:1;fill-rule:nonzero;stroke-width:0.264583;stroke-linecap:butt;stroke-linejoin:miter;stroke-miterlimit:4;stroke-dasharray:none;stroke-dashoffset:0;stroke-opacity:1.0;color-rendering:auto;image-rendering:auto;shape-rendering:auto;text-rendering:auto;enable-background:accumulate;stop-color:#000000;stop-opacity:1;stroke:none;" />
        <path
           id="path1643"
           d="M 69.382812 41.630859 L 56.685547 75.726562 L 65.558594 75.726562 L 67.640625 69.173828 L 80.402344 69.173828 L 82.535156 75.726562 L 91.408203 75.726562 L 78.710938 41.630859 L 69.382812 41.630859 z M 69.566406 41.894531 L 78.527344 41.894531 L 91.027344 75.462891 L 82.728516 75.462891 L 80.59375 68.910156 L 80.498047 68.910156 L 67.447266 68.910156 L 65.365234 75.462891 L 57.066406 75.462891 L 69.566406 41.894531 z M 74.046875 47.708984 L 69.498047 62.570312 L 69.677734 62.570312 L 78.542969 62.570312 L 74.046875 47.708984 z M 74.046875 48.619141 L 78.1875 62.306641 L 69.857422 62.306641 L 74.046875 48.619141 z "
           style="color:#000000;font-style:normal;font-variant:normal;font-weight:bold;font-stretch:normal;font-size:50.79999999999999716px;line-height:1.25;font-family:Seravek;-inkscape-font-specification:'Seravek, Bold';font-variant-ligatures:normal;font-variant-position:normal;font-variant-caps:normal;font-variant-numeric:normal;font-variant-alternates:normal;font-variant-east-asian:normal;font-feature-settings:normal;font-variation-settings:normal;text-indent:0;text-align:start;text-decoration:none;text-decoration-line:none;text-decoration-style:solid;text-decoration-color:#000000;letter-spacing:normal;word-spacing:normal;text-transform:none;writing-mode:lr-tb;direction:ltr;text-orientation:mixed;dominant-baseline:auto;baseline-shift:baseline;text-anchor:start;white-space:normal;shape-padding:0;shape-margin:0;inline-size:0;clip-rule:nonzero;display:inline;overflow:visible;visibility:visible;isolation:auto;mix-blend-mode:normal;color-interpolation:sRGB;color-interpolation-filters:linearRGB;solid-color:#000000;solid-opacity:1;vector-effect:none;fill-opacity:1;fill-rule:nonzero;stroke-width:0.264583;stroke-linecap:butt;stroke-linejoin:miter;stroke-miterlimit:4;stroke-dasharray:none;stroke-dashoffset:0;stroke-opacity:1.0;color-rendering:auto;image-rendering:auto;shape-rendering:auto;text-rendering:auto;enable-background:accumulate;stop-color:#000000;stop-opacity:1;stroke:none;" />
      </g>
      <g
         style="opacity:1"
         id="g1645">
        <path
           id="path1647"
           d="m 120.03159,66.04483 c 0,1.524 -0.33867,2.878667 -1.016,4.064 -0.67733,1.185333 -1.65947,2.1844 -2.9464,2.9972 -1.25307,0.8128 -2.77707,1.439333 -4.572,1.8796 -1.76107,0.4064 -3.72533,0.6096 -5.8928,0.6096 H 95.088795 V 41.762431 h 12.141195 c 1.8288,0 3.4544,0.2032 4.8768,0.6096 1.45627,0.4064 2.67547,0.9652 3.6576,1.6764 0.98213,0.7112 1.7272,1.540933 2.2352,2.4892 0.54187,0.948267 0.8128,1.9812 0.8128,3.098799 0,2.099733 -0.59267,3.826933 -1.778,5.1816 -1.15147,1.354667 -2.8448,2.370667 -5.08,3.048 1.15147,0.2032 2.21827,0.524933 3.2004,0.9652 0.98213,0.440267 1.8288,0.999067 2.54,1.6764 0.74507,0.677333 1.3208,1.4732 1.7272,2.3876 0.4064,0.9144 0.6096,1.964267 0.6096,3.1496 z m -8.2296,-0.6604 c 0,-1.286933 -0.52493,-2.252133 -1.5748,-2.8956 -1.016,-0.677333 -2.4384,-1.016 -4.2672,-1.016 h -2.7432 v 7.874 h 2.9464 c 2.032,0 3.47133,-0.389467 4.318,-1.1684 0.88053,-0.778933 1.3208,-1.710267 1.3208,-2.794 z m -6.1468,-10.16 c 1.45627,0 2.6416,-0.321733 3.556,-0.9652 0.9144,-0.677333 1.3716,-1.6256 1.3716,-2.8448 0,-1.083733 -0.4064,-1.913466 -1.2192,-2.489199 -0.77893,-0.6096 -1.8796,-0.9144 -3.302,-0.9144 h -2.8448 v 7.213599 z"
           style="color:#000000;font-style:normal;font-variant:normal;font-weight:bold;font-stretch:normal;font-size:50.79999999999999716px;line-height:1.25;font-family:Seravek;-inkscape-font-specification:'Seravek, Bold';font-variant-ligatures:normal;font-variant-position:normal;font-variant-caps:normal;font-variant-numeric:normal;font-variant-alternates:normal;font-variant-east-asian:normal;font-feature-settings:normal;font-variation-settings:normal;text-indent:0;text-align:start;text-decoration:none;text-decoration-line:none;text-decoration-style:solid;text-decoration-color:#000000;letter-spacing:normal;word-spacing:normal;text-transform:none;writing-mode:lr-tb;direction:ltr;text-orientation:mixed;dominant-baseline:auto;baseline-shift:baseline;text-anchor:start;white-space:normal;shape-padding:0;shape-margin:0;inline-size:0;clip-rule:nonzero;display:inline;overflow:visible;visibility:visible;isolation:auto;mix-blend-mode:normal;color-interpolation:sRGB;color-interpolation-filters:linearRGB;solid-color:#000000;solid-opacity:1;vector-effect:none;fill:#ed4133;fill-opacity:1;fill-rule:nonzero;stroke-width:0.264583;stroke-linecap:butt;stroke-linejoin:miter;stroke-miterlimit:4;stroke-dasharray:none;stroke-dashoffset:0;stroke-opacity:1.0;color-rendering:auto;image-rendering:auto;shape-rendering:auto;text-rendering:auto;enable-background:accumulate;stop-color:#000000;stop-opacity:1;stroke:none;" />
        <path
           id="path1649"
           d="M 94.957031 41.630859 L 94.957031 75.726562 L 105.60352 75.726562 C 107.77925 75.726562 109.75469 75.524308 111.52734 75.115234 L 111.5293 75.113281 C 113.33561 74.670224 114.87251 74.039356 116.14062 73.216797 L 116.14062 73.21875 C 117.44325 72.396041 118.44208 71.379189 119.13086 70.173828 C 119.82031 68.96729 120.16406 67.588521 120.16406 66.044922 C 120.16406 64.84447 119.95799 63.775584 119.54297 62.841797 C 119.12968 61.911902 118.54229 61.100918 117.78516 60.412109 C 117.0623 59.723674 116.20335 59.156687 115.20898 58.710938 C 114.32647 58.315329 113.35161 58.049585 112.33594 57.84375 C 114.40021 57.162986 116.03067 56.203236 117.13477 54.904297 C 118.3424 53.524138 118.94531 51.761346 118.94531 49.636719 C 118.94531 48.498397 118.66757 47.441859 118.11523 46.474609 L 118.11523 46.472656 C 117.59699 45.505761 116.83735 44.662325 115.8418 43.941406 C 114.8442 43.21901 113.61067 42.653841 112.14258 42.244141 C 110.70578 41.833626 109.06907 41.630859 107.23047 41.630859 L 94.957031 41.630859 z M 95.220703 41.894531 L 107.23047 41.894531 C 109.04947 41.894531 110.66231 42.097714 112.07031 42.5 C 113.51475 42.903099 114.72083 43.456247 115.6875 44.15625 C 116.65579 44.857423 117.38507 45.670489 117.88281 46.599609 L 117.88477 46.601562 L 117.88477 46.603516 C 118.41552 47.532344 118.67969 48.5405 118.67969 49.636719 C 118.67969 51.711559 118.09857 53.401294 116.93555 54.730469 L 116.93359 54.732422 C 115.80244 56.063193 114.13382 57.068171 111.91602 57.740234 L 111.93164 57.996094 C 113.07334 58.197571 114.13011 58.515692 115.10156 58.951172 C 116.07146 59.385956 116.90397 59.937284 117.60352 60.603516 L 117.60547 60.603516 L 117.60547 60.605469 C 118.33747 61.270923 118.90164 62.051159 119.30078 62.949219 C 119.69856 63.844232 119.89844 64.874708 119.89844 66.044922 C 119.89844 67.549323 119.56561 68.878841 118.90039 70.042969 C 118.2345 71.208275 117.26929 72.191249 115.99805 72.994141 C 114.76003 73.797181 113.2484 74.419945 111.46484 74.857422 C 109.71581 75.260882 107.762 75.462891 105.60352 75.462891 L 95.220703 75.462891 L 95.220703 41.894531 z M 103.08398 47.878906 L 103.08398 55.357422 L 105.6543 55.357422 C 107.13005 55.357422 108.34568 55.029676 109.28711 54.367188 L 109.28906 54.367188 L 109.28906 54.365234 C 110.23397 53.665303 110.71484 52.666335 110.71484 51.414062 C 110.71484 50.298309 110.28458 49.416693 109.44141 48.818359 C 108.63192 48.186403 107.50185 47.878906 106.0625 47.878906 L 103.08398 47.878906 z M 103.34961 48.142578 L 106.0625 48.142578 C 107.466 48.142578 108.53309 48.443784 109.28125 49.029297 L 109.28516 49.03125 L 109.28711 49.033203 C 110.06796 49.586305 110.45117 50.363402 110.45117 51.414062 C 110.45117 52.60019 110.01671 53.497608 109.13281 54.152344 C 108.24571 54.775837 107.08998 55.091797 105.6543 55.091797 L 103.34961 55.091797 L 103.34961 48.142578 z M 103.08398 61.339844 L 103.08398 69.478516 L 106.16406 69.478516 C 108.21161 69.478516 109.68269 69.090878 110.56836 68.277344 L 110.57031 68.275391 C 111.47219 67.476651 111.93359 66.503412 111.93359 65.384766 C 111.93359 64.061858 111.38024 63.040953 110.29688 62.376953 C 109.25065 61.680815 107.80409 61.339844 105.96094 61.339844 L 103.08398 61.339844 z M 103.34961 61.605469 L 105.96094 61.605469 C 107.77341 61.605469 109.16878 61.942597 110.1543 62.599609 L 110.15625 62.599609 L 110.1582 62.601562 C 111.17457 63.224496 111.66992 64.133806 111.66992 65.384766 C 111.66992 66.43267 111.25031 67.321318 110.39258 68.080078 L 110.39258 68.082031 C 109.58472 68.825261 108.17916 69.214844 106.16406 69.214844 L 103.34961 69.214844 L 103.34961 61.605469 z "
           style="color:#000000;font-style:normal;font-variant:normal;font-weight:bold;font-stretch:normal;font-size:50.79999999999999716px;line-height:1.25;font-family:Seravek;-inkscape-font-specification:'Seravek, Bold';font-variant-ligatures:normal;font-variant-position:normal;font-variant-caps:normal;font-variant-numeric:normal;font-variant-alternates:normal;font-variant-east-asian:normal;font-feature-settings:normal;font-variation-settings:normal;text-indent:0;text-align:start;text-decoration:none;text-decoration-line:none;text-decoration-style:solid;text-decoration-color:#000000;letter-spacing:normal;word-spacing:normal;text-transform:none;writing-mode:lr-tb;direction:ltr;text-orientation:mixed;dominant-baseline:auto;baseline-shift:baseline;text-anchor:start;white-space:normal;shape-padding:0;shape-margin:0;inline-size:0;clip-rule:nonzero;display:inline;overflow:visible;visibility:visible;isolation:auto;mix-blend-mode:normal;color-interpolation:sRGB;color-interpolation-filters:linearRGB;solid-color:#000000;solid-opacity:1;vector-effect:none;fill-opacity:1;fill-rule:nonzero;stroke-width:0.264583;stroke-linecap:butt;stroke-linejoin:miter;stroke-miterlimit:4;stroke-dasharray:none;stroke-dashoffset:0;stroke-opacity:1.0;color-rendering:auto;image-rendering:auto;shape-rendering:auto;text-rendering:auto;enable-background:accumulate;stop-color:#000000;stop-opacity:1;stroke:none;" />
      </g>
      <g
         style="opacity:1"
         id="g1651">
        <path
           id="path1653"
           d="m 147.25245,65.48603 c 0,1.490133 -0.3048,2.8956 -0.9144,4.2164 -0.57573,1.286933 -1.4224,2.421467 -2.54,3.4036 -1.1176,0.948267 -2.47227,1.710267 -4.064,2.286 -1.59173,0.541867 -3.4036,0.8128 -5.4356,0.8128 -1.86267,0 -3.72533,-0.2032 -5.588,-0.6096 -1.86267,-0.4064 -3.58987,-0.999067 -5.1816,-1.778 l 1.6764,-6.35 c 1.18533,0.575733 2.52307,1.083733 4.0132,1.524 1.49013,0.4064 3.0988,0.6096 4.826,0.6096 1.4224,0 2.5908,-0.254 3.5052,-0.762 0.9144,-0.541867 1.3716,-1.405467 1.3716,-2.5908 0,-0.846667 -0.4064,-1.608667 -1.2192,-2.286 -0.77893,-0.7112 -2.21827,-1.456267 -4.318,-2.2352 -3.31893,-1.253067 -5.7404,-2.675467 -7.2644,-4.2672 -1.524,-1.6256 -2.286,-3.691467 -2.286,-6.1976 0,-3.285066 1.0668,-5.791199 3.2004,-7.518399 2.16747,-1.7272 5.14773,-2.5908 8.9408,-2.5908 1.9304,0 3.77613,0.220133 5.5372,0.6604 1.76107,0.4064 3.2512,0.948267 4.4704,1.6256 l -1.4224,6.248399 c -1.18533,-0.575733 -2.4892,-1.032932 -3.9116,-1.371599 -1.38853,-0.372533 -2.82787,-0.5588 -4.318,-0.5588 -1.25307,0 -2.26907,0.220133 -3.048,0.6604 -0.74507,0.4064 -1.1176,1.1176 -1.1176,2.133599 0,0.474133 0.0677,0.880533 0.2032,1.2192 0.13547,0.338667 0.37253,0.6604 0.7112,0.9652 0.37253,0.3048 0.88053,0.6096 1.524,0.9144 0.64347,0.3048 1.45627,0.6604 2.4384,1.0668 1.4224,0.575733 2.76013,1.185333 4.0132,1.8288 1.25307,0.643467 2.3368,1.388533 3.2512,2.2352 0.9144,0.846667 1.6256,1.811867 2.1336,2.8956 0.54187,1.083733 0.8128,2.353733 0.8128,3.81 z"
           style="color:#000000;font-style:normal;font-variant:normal;font-weight:bold;font-stretch:normal;font-size:50.79999999999999716px;line-height:1.25;font-family:Seravek;-inkscape-font-specification:'Seravek, Bold';font-variant-ligatures:normal;font-variant-position:normal;font-variant-caps:normal;font-variant-numeric:normal;font-variant-alternates:normal;font-variant-east-asian:normal;font-feature-settings:normal;font-variation-settings:normal;text-indent:0;text-align:start;text-decoration:none;text-decoration-line:none;text-decoration-style:solid;text-decoration-color:#000000;letter-spacing:normal;word-spacing:normal;text-transform:none;writing-mode:lr-tb;direction:ltr;text-orientation:mixed;dominant-baseline:auto;baseline-shift:baseline;text-anchor:start;white-space:normal;shape-padding:0;shape-margin:0;inline-size:0;clip-rule:nonzero;display:inline;overflow:visible;visibility:visible;isolation:auto;mix-blend-mode:normal;color-interpolation:sRGB;color-interpolation-filters:linearRGB;solid-color:#000000;solid-opacity:1;vector-effect:none;fill:#ed4133;fill-opacity:1;fill-rule:nonzero;stroke-width:0.264583;stroke-linecap:butt;stroke-linejoin:miter;stroke-miterlimit:4;stroke-dasharray:none;stroke-dashoffset:0;stroke-opacity:1.0;color-rendering:auto;image-rendering:auto;shape-rendering:auto;text-rendering:auto;enable-background:accumulate;stop-color:#000000;stop-opacity:1;stroke:none;" />
        <path
           id="path1655"
           d="M 135.97461 41.021484 C 132.16146 41.021484 129.14805 41.889985 126.95117 43.640625 C 124.78569 45.393632 123.70117 47.948012 123.70117 51.261719 C 123.70117 53.794668 124.47624 55.900435 126.02344 57.550781 C 127.56862 59.164639 130.0079 60.594321 133.33789 61.851562 C 135.43032 62.627785 136.8603 63.373042 137.61328 64.060547 L 137.61523 64.0625 L 137.61719 64.064453 C 138.40916 64.724432 138.78906 65.443713 138.78906 66.248047 C 138.78906 67.398229 138.36063 68.202309 137.48438 68.722656 C 137.48351 68.723169 137.48329 68.724097 137.48242 68.724609 C 136.59393 69.217292 135.44988 69.46875 134.04492 69.46875 C 132.3281 69.46875 130.73152 69.266267 129.25391 68.863281 C 127.77072 68.424933 126.44063 67.919324 125.26367 67.347656 L 125.11914 67.277344 L 123.37305 73.888672 L 123.4707 73.935547 C 125.07258 74.719443 126.80944 75.31613 128.68164 75.724609 C 130.55328 76.132967 132.42654 76.337891 134.29883 76.337891 C 136.34259 76.337891 138.16935 76.064979 139.77734 75.517578 L 139.7793 75.515625 C 141.38356 74.935358 142.75166 74.166798 143.88281 73.207031 L 143.88477 73.207031 L 143.88477 73.205078 C 145.01502 72.211828 145.87536 71.061835 146.45898 69.757812 L 146.45898 69.755859 C 147.07598 68.41838 147.38477 66.993843 147.38477 65.486328 C 147.38477 64.014364 147.11053 62.723721 146.55859 61.619141 L 146.55859 61.617188 C 146.04331 60.518399 145.32217 59.540711 144.39648 58.683594 C 143.47224 57.827811 142.37764 57.075998 141.11523 56.427734 C 139.85834 55.7823 138.51756 55.170845 137.0918 54.59375 C 136.11103 54.187915 135.30065 53.832687 134.66016 53.529297 C 134.02575 53.228788 133.528 52.930424 133.16797 52.636719 C 132.84089 52.342349 132.61667 52.03678 132.49023 51.720703 C 132.36267 51.401802 132.29688 51.012315 132.29688 50.550781 C 132.29688 49.56712 132.64132 48.917411 133.3457 48.533203 L 133.34766 48.533203 C 134.10014 48.107889 135.09251 47.888672 136.33008 47.888672 C 137.80919 47.888672 139.23619 48.073895 140.61328 48.443359 L 140.61523 48.443359 L 140.61719 48.443359 C 142.03121 48.780032 143.32616 49.23554 144.50195 49.806641 L 144.65234 49.878906 L 146.13281 43.371094 L 146.04688 43.322266 C 144.81497 42.637875 143.31307 42.093941 141.54492 41.685547 C 139.77282 41.242522 137.91507 41.021484 135.97461 41.021484 z M 135.97461 41.285156 C 137.89495 41.285156 139.73044 41.503898 141.48047 41.941406 L 141.48242 41.941406 C 143.19876 42.337485 144.63634 42.870638 145.82812 43.521484 L 144.46484 49.515625 C 143.30736 48.966604 142.05519 48.515 140.67969 48.1875 C 139.28086 47.81256 137.82991 47.625 136.33008 47.625 C 135.06152 47.625 134.02218 47.847515 133.2168 48.302734 C 132.43275 48.731611 132.0332 49.503595 132.0332 50.550781 C 132.0332 51.037514 132.10272 51.459927 132.24609 51.818359 C 132.3906 52.179615 132.63998 52.518754 132.99023 52.833984 L 132.99219 52.835938 L 132.99609 52.837891 C 133.38079 53.152644 133.89692 53.461656 134.54688 53.769531 C 135.19332 54.075741 136.00674 54.430926 136.99023 54.837891 L 136.99219 54.837891 L 136.99219 54.839844 C 138.41122 55.414215 139.74491 56.020611 140.99414 56.662109 C 142.23787 57.300779 143.31224 58.039403 144.2168 58.876953 C 145.11951 59.7128 145.81964 60.664321 146.32031 61.732422 L 146.32031 61.734375 L 146.32227 61.734375 C 146.85353 62.796908 147.12109 64.04647 147.12109 65.486328 C 147.12109 66.958422 146.82042 68.342872 146.21875 69.646484 L 146.2168 69.648438 C 145.64897 70.917695 144.81548 72.035204 143.71094 73.005859 C 142.60712 73.942146 141.26807 74.696589 139.68945 75.267578 C 138.11438 75.803531 136.31835 76.072266 134.29883 76.072266 C 132.44578 76.072266 130.59197 75.871239 128.73828 75.466797 C 126.92088 75.070272 125.24372 74.484484 123.6875 73.732422 L 125.29688 67.642578 C 126.45632 68.195514 127.74132 68.69164 129.18164 69.117188 L 129.18164 69.119141 L 129.18359 69.119141 C 130.68624 69.528955 132.30735 69.732422 134.04492 69.732422 C 135.48307 69.732422 136.67343 69.47722 137.61328 68.955078 L 137.61523 68.953125 L 137.61719 68.953125 C 138.56798 68.38969 139.05273 67.467398 139.05273 66.248047 C 139.05273 65.360717 138.62157 64.559027 137.79102 63.865234 C 137.79073 63.864975 137.78935 63.865494 137.78906 63.865234 C 136.98429 63.130851 135.53673 62.384583 133.43164 61.603516 L 133.42969 61.603516 C 130.12277 60.354795 127.71738 58.936502 126.21484 57.367188 C 124.7153 55.766648 123.9668 53.739996 123.9668 51.261719 C 123.9668 48.005941 125.0163 45.549011 127.11719 43.847656 C 129.25524 42.143896 132.20162 41.285156 135.97461 41.285156 z "
           style="color:#000000;font-style:normal;font-variant:normal;font-weight:bold;font-stretch:normal;font-size:50.79999999999999716px;line-height:1.25;font-family:Seravek;-inkscape-font-specification:'Seravek, Bold';font-variant-ligatures:normal;font-variant-position:normal;font-variant-caps:normal;font-variant-numeric:normal;font-variant-alternates:normal;font-variant-east-asian:normal;font-feature-settings:normal;font-variation-settings:normal;text-indent:0;text-align:start;text-decoration:none;text-decoration-line:none;text-decoration-style:solid;text-decoration-color:#000000;letter-spacing:normal;word-spacing:normal;text-transform:none;writing-mode:lr-tb;direction:ltr;text-orientation:mixed;dominant-baseline:auto;baseline-shift:baseline;text-anchor:start;white-space:normal;shape-padding:0;shape-margin:0;inline-size:0;clip-rule:nonzero;display:inline;overflow:visible;visibility:visible;isolation:auto;mix-blend-mode:normal;color-interpolation:sRGB;color-interpolation-filters:linearRGB;solid-color:#000000;solid-opacity:1;vector-effect:none;fill-opacity:1;fill-rule:nonzero;stroke-width:0.264583;stroke-linecap:butt;stroke-linejoin:miter;stroke-miterlimit:4;stroke-dasharray:none;stroke-dashoffset:0;stroke-opacity:1.0;color-rendering:auto;image-rendering:auto;shape-rendering:auto;text-rendering:auto;enable-background:accumulate;stop-color:#000000;stop-opacity:1;stroke:none;" />
      </g>
    </g>
  </g>
</svg>
